<svg width="120" height="35" viewBox="0 0 120 35" fill="none" xmlns="http://www.w3.org/2000/svg">
<path d="M115.556 0H4.44444C1.98985 0 0 1.95875 0 4.375V30.625C0 33.0412 1.98985 35 4.44444 35H115.556C118.01 35 120 33.0412 120 30.625V4.375C120 1.95875 118.01 0 115.556 0Z" fill="black"/>
<path d="M115.556 0.7C116.546 0.7 117.495 1.08719 118.195 1.77638C118.896 2.46558 119.289 3.40033 119.289 4.375V30.625C119.289 31.5997 118.896 32.5344 118.195 33.2236C117.495 33.9128 116.546 34.3 115.556 34.3H4.44444C3.4543 34.3 2.50471 33.9128 1.80458 33.2236C1.10444 32.5344 0.711111 31.5997 0.711111 30.625V4.375C0.711111 3.40033 1.10444 2.46558 1.80458 1.77638C2.50471 1.08719 3.4543 0.7 4.44444 0.7H115.556ZM115.556 0H4.44444C3.2657 0 2.13524 0.460936 1.30175 1.28141C0.468253 2.10188 0 3.21468 0 4.375V30.625C0 31.7853 0.468253 32.8981 1.30175 33.7186C2.13524 34.5391 3.2657 35 4.44444 35H115.556C116.734 35 117.865 34.5391 118.698 33.7186C119.532 32.8981 120 31.7853 120 30.625V4.375C120 3.21468 119.532 2.10188 118.698 1.28141C117.865 0.460936 116.734 0 115.556 0Z" fill="#A6A6A6"/>
<path d="M28.5448 16.8991C28.5202 14.2121 30.7799 12.9048 30.8832 12.844C29.6035 11.0073 27.6199 10.7564 26.9229 10.7363C25.257 10.5638 23.641 11.7176 22.7924 11.7176C21.9268 11.7176 20.62 10.753 19.2115 10.7814C17.3991 10.8089 15.7035 11.8418 14.7736 13.4459C12.8544 16.7165 14.2857 21.5228 16.1244 24.1665C17.0442 25.4613 18.119 26.9069 19.5257 26.856C20.902 26.8002 21.4161 25.9923 23.077 25.9923C24.7226 25.9923 25.2053 26.856 26.64 26.8235C28.1171 26.8002 29.047 25.5229 29.9346 24.2165C30.9975 22.7325 31.4244 21.271 31.4413 21.196C31.4066 21.1843 28.5727 20.1197 28.5448 16.8991Z" fill="white"/>
<path d="M25.8346 8.99691C26.5748 8.08567 27.0813 6.84595 26.9407 5.58789C25.8693 5.63458 24.5295 6.31738 23.7579 7.20861C23.0753 7.99396 22.4655 9.28121 22.623 10.4917C23.8265 10.5801 25.0622 9.89398 25.8346 8.99691Z" fill="white"/>
<path d="M48.462 26.6701H46.5386L45.4851 23.4112H41.8229L40.8193 26.6701H38.9467L42.575 15.5752H44.816L48.462 26.6701ZM45.1675 22.0439L44.2146 19.1468C44.1139 18.8508 43.925 18.1538 43.6464 17.0567H43.6125C43.5015 17.5286 43.3228 18.2255 43.0772 19.1468L42.1413 22.0439H45.1675Z" fill="white"/>
<path d="M57.7925 22.5709C57.7925 23.9315 57.419 25.007 56.672 25.7965C56.003 26.4993 55.1721 26.8503 54.1803 26.8503C53.1098 26.8503 52.3408 26.4718 51.8724 25.7148H51.8386V29.9292H50.0329V21.3028C50.0329 20.4474 50.01 19.5695 49.966 18.6691H51.554L51.6548 19.9372H51.6886C52.2908 18.9818 53.2047 18.5049 54.431 18.5049C55.3898 18.5049 56.1901 18.8775 56.8304 19.6237C57.4724 20.3707 57.7925 21.3528 57.7925 22.5709ZM55.953 22.6359C55.953 21.8572 55.7751 21.2153 55.4177 20.71C55.0273 20.1831 54.503 19.9197 53.8458 19.9197C53.4003 19.9197 52.9955 20.0664 52.6338 20.3557C52.2713 20.6475 52.0342 21.0285 51.9232 21.5004C51.8673 21.7205 51.8394 21.9006 51.8394 22.0423V23.3762C51.8394 23.9582 52.0206 24.4492 52.3831 24.8502C52.7456 25.2512 53.2165 25.4513 53.7958 25.4513C54.4759 25.4513 55.0053 25.1929 55.3838 24.6776C55.7633 24.1616 55.953 23.4813 55.953 22.6359Z" fill="white"/>
<path d="M67.1404 22.5709C67.1404 23.9315 66.7669 25.007 66.0191 25.7965C65.3508 26.4993 64.52 26.8503 63.5282 26.8503C62.4577 26.8503 61.6887 26.4718 61.2212 25.7148H61.1873V29.9292H59.3816V21.3028C59.3816 20.4474 59.3587 19.5695 59.3147 18.6691H60.9027L61.0035 19.9372H61.0374C61.6387 18.9818 62.5525 18.5049 63.7798 18.5049C64.7376 18.5049 65.538 18.8775 66.18 19.6237C66.8194 20.3707 67.1404 21.3528 67.1404 22.5709ZM65.3009 22.6359C65.3009 21.8572 65.1222 21.2153 64.7647 20.71C64.3743 20.1831 63.8517 19.9197 63.1937 19.9197C62.7473 19.9197 62.3434 20.0664 61.9809 20.3557C61.6184 20.6475 61.3821 21.0285 61.2711 21.5004C61.2161 21.7205 61.1873 21.9006 61.1873 22.0423V23.3762C61.1873 23.9582 61.3685 24.4492 61.7293 24.8502C62.0918 25.2504 62.5627 25.4513 63.1437 25.4513C63.8238 25.4513 64.3531 25.1929 64.7317 24.6776C65.1111 24.1616 65.3009 23.4813 65.3009 22.6359Z" fill="white"/>
<path d="M77.5917 23.5582C77.5917 24.502 77.2588 25.2698 76.5906 25.8626C75.8563 26.5104 74.8341 26.8339 73.5205 26.8339C72.3076 26.8339 71.3354 26.6038 70.5994 26.1427L71.0178 24.6612C71.8105 25.1331 72.6803 25.3699 73.628 25.3699C74.3081 25.3699 74.8374 25.2182 75.2177 24.9164C75.5963 24.6146 75.7852 24.2094 75.7852 23.7041C75.7852 23.2539 75.6293 22.8746 75.3168 22.567C75.006 22.2593 74.4868 21.9734 73.7618 21.7091C71.7885 20.9846 70.8026 19.9233 70.8026 18.5277C70.8026 17.6156 71.1482 16.8678 71.8401 16.2858C72.5295 15.7031 73.4493 15.4121 74.5995 15.4121C75.6251 15.4121 76.4771 15.588 77.1572 15.939L76.7058 17.388C76.0706 17.0478 75.3524 16.8778 74.5486 16.8778C73.9134 16.8778 73.4171 17.032 73.0614 17.3388C72.7608 17.6131 72.61 17.9474 72.61 18.3434C72.61 18.7819 72.7819 19.1446 73.1275 19.4297C73.4281 19.6932 73.9744 19.9783 74.7672 20.286C75.7369 20.6703 76.4492 21.1197 76.9074 21.6349C77.3639 22.1485 77.5917 22.7912 77.5917 23.5582Z" fill="white"/>
<path d="M83.5617 20.0031H81.5714V23.8873C81.5714 24.8753 81.922 25.3688 82.6249 25.3688C82.9476 25.3688 83.2153 25.3413 83.427 25.2863L83.477 26.6361C83.1213 26.767 82.6529 26.8328 82.0727 26.8328C81.3596 26.8328 80.8023 26.6186 80.4 26.1909C79.9994 25.7623 79.7979 25.0437 79.7979 24.0341V20.0014H78.6122V18.6675H79.7979V17.2027L81.5714 16.6758V18.6675H83.5617V20.0031Z" fill="white"/>
<path d="M92.5418 22.6035C92.5418 23.8332 92.1844 24.8429 91.4713 25.6324C90.7234 26.4452 89.7308 26.8504 88.4934 26.8504C87.3009 26.8504 86.3515 26.4611 85.6435 25.6824C84.9354 24.9037 84.5814 23.9208 84.5814 22.7361C84.5814 21.4964 84.9456 20.4809 85.6765 19.6914C86.4057 18.901 87.3899 18.5059 88.6272 18.5059C89.8197 18.5059 90.7793 18.8952 91.5034 19.6747C92.1962 20.4309 92.5418 21.4072 92.5418 22.6035ZM90.6684 22.661C90.6684 21.9232 90.5083 21.2904 90.1839 20.7627C89.8053 20.1241 89.2641 19.8056 88.5629 19.8056C87.837 19.8056 87.2857 20.1249 86.9071 20.7627C86.5827 21.2913 86.4227 21.9341 86.4227 22.6944C86.4227 23.4322 86.5827 24.065 86.9071 24.5919C87.2976 25.2305 87.843 25.549 88.5468 25.549C89.2362 25.549 89.7774 25.2239 90.1678 24.5752C90.5007 24.0375 90.6684 23.398 90.6684 22.661Z" fill="white"/>
<path d="M98.4109 20.2323C98.2322 20.1998 98.0417 20.1831 97.8418 20.1831C97.2066 20.1831 96.7154 20.4191 96.3698 20.8918C96.0692 21.3086 95.9184 21.8355 95.9184 22.4717V26.6694H94.1136L94.1305 21.1886C94.1305 20.2665 94.1077 19.427 94.0628 18.67H95.6355L95.7016 20.2006H95.7516C95.9421 19.6746 96.2428 19.251 96.6544 18.9334C97.0567 18.6474 97.4912 18.5049 97.9595 18.5049C98.1264 18.5049 98.2771 18.5166 98.4109 18.5374V20.2323Z" fill="white"/>
<path d="M106.487 22.2911C106.487 22.6096 106.465 22.878 106.42 23.0973H101.003C101.025 23.8876 101.286 24.4921 101.789 24.9089C102.246 25.2816 102.836 25.4684 103.561 25.4684C104.363 25.4684 105.095 25.3425 105.753 25.0898L106.036 26.3237C105.267 26.6539 104.359 26.8181 103.311 26.8181C102.051 26.8181 101.062 26.453 100.342 25.7235C99.6238 24.994 99.2638 24.0144 99.2638 22.7855C99.2638 21.5791 99.5984 20.5745 100.268 19.7733C100.97 18.9179 101.917 18.4902 103.11 18.4902C104.281 18.4902 105.168 18.9179 105.77 19.7733C106.247 20.4528 106.487 21.2932 106.487 22.2911ZM104.765 21.8301C104.777 21.3032 104.659 20.848 104.414 20.4636C104.102 19.9692 103.621 19.7225 102.975 19.7225C102.385 19.7225 101.905 19.9634 101.538 20.4469C101.237 20.8313 101.058 21.2923 101.003 21.8292H104.765V21.8301Z" fill="white"/>
<path d="M44.5706 8.74931C44.5706 9.73059 44.2716 10.4692 43.6746 10.9653C43.1215 11.423 42.3355 11.6523 41.3175 11.6523C40.8127 11.6523 40.3808 11.6306 40.0192 11.5872V6.22569C40.4909 6.15065 40.9991 6.1123 41.5479 6.1123C42.5176 6.1123 43.2485 6.3199 43.7415 6.73508C44.2937 7.20446 44.5706 7.87559 44.5706 8.74931ZM43.6348 8.77349C43.6348 8.13737 43.4637 7.64966 43.1215 7.30951C42.7793 6.97019 42.2796 6.80011 41.6216 6.80011C41.3421 6.80011 41.1041 6.81845 40.9068 6.8568V10.9328C41.016 10.9495 41.2159 10.957 41.5064 10.957C42.1856 10.957 42.7099 10.771 43.0792 10.3992C43.4484 10.0274 43.6348 9.48548 43.6348 8.77349Z" fill="white"/>
<path d="M49.5329 9.60729C49.5329 10.2117 49.3576 10.7069 49.0069 11.0955C48.6394 11.4948 48.1524 11.6941 47.5443 11.6941C46.9582 11.6941 46.4915 11.5031 46.1434 11.1196C45.7962 10.737 45.6226 10.2542 45.6226 9.67232C45.6226 9.06372 45.8013 8.56433 46.1604 8.17665C46.5195 7.78898 47.0022 7.59473 47.6103 7.59473C48.1964 7.59473 48.6673 7.78564 49.0239 8.16832C49.3626 8.54015 49.5329 9.02036 49.5329 9.60729ZM48.6123 9.63564C48.6123 9.27298 48.5326 8.962 48.3743 8.70272C48.1879 8.38925 47.9228 8.23251 47.5781 8.23251C47.2216 8.23251 46.9506 8.38925 46.7642 8.70272C46.605 8.962 46.5262 9.27798 46.5262 9.65148C46.5262 10.0141 46.6059 10.3251 46.7642 10.5844C46.9565 10.8979 47.2241 11.0546 47.5697 11.0546C47.9084 11.0546 48.1744 10.8954 48.3658 10.5761C48.5301 10.3118 48.6123 9.9983 48.6123 9.63564Z" fill="white"/>
<path d="M56.1865 7.67383L54.9373 11.6039H54.1242L53.6067 9.89732C53.4755 9.4713 53.3687 9.04778 53.2857 8.62759H53.2697C53.1926 9.05945 53.0859 9.48214 52.9487 9.89732L52.399 11.6039H51.5766L50.4019 7.67383H51.3141L51.7655 9.54216C51.8747 9.98403 51.9645 10.405 52.0365 10.8036H52.0526C52.1187 10.4751 52.2279 10.0566 52.3821 9.5505L52.9487 7.67466H53.672L54.2148 9.51048C54.3461 9.95818 54.4528 10.3892 54.535 10.8044H54.5595C54.6197 10.4 54.7103 9.96902 54.8306 9.51048L55.315 7.67466H56.1865V7.67383Z" fill="white"/>
<path d="M60.7878 11.6044H59.9002V9.35342C59.9002 8.65977 59.6326 8.31295 59.0956 8.31295C58.8322 8.31295 58.6196 8.40799 58.4545 8.59891C58.291 8.78983 58.208 9.01493 58.208 9.27255V11.6036H57.3204V8.79733C57.3204 8.45218 57.3094 8.07785 57.2882 7.67267H58.0683L58.1098 8.28711H58.1343C58.2377 8.09619 58.3918 7.93862 58.5942 7.81273C58.8347 7.666 59.1041 7.5918 59.3988 7.5918C59.7715 7.5918 60.0814 7.71018 60.3279 7.94779C60.6345 8.23875 60.7878 8.67311 60.7878 9.25004V11.6044Z" fill="white"/>
<path d="M63.2354 11.6045H62.3486V5.87109H63.2354V11.6045Z" fill="white"/>
<path d="M68.4612 9.60729C68.4612 10.2117 68.2858 10.7069 67.9352 11.0955C67.5676 11.4948 67.0798 11.6941 66.4725 11.6941C65.8856 11.6941 65.419 11.5031 65.0717 11.1196C64.7245 10.737 64.5508 10.2542 64.5508 9.67232C64.5508 9.06372 64.7295 8.56433 65.0886 8.17665C65.4477 7.78898 65.9305 7.59473 66.5378 7.59473C67.1247 7.59473 67.5947 7.78564 67.9521 8.16832C68.2909 8.54015 68.4612 9.02036 68.4612 9.60729ZM67.5397 9.63564C67.5397 9.27298 67.4601 8.962 67.3017 8.70272C67.1162 8.38925 66.8503 8.23251 66.5064 8.23251C66.149 8.23251 65.878 8.38925 65.6925 8.70272C65.5333 8.962 65.4545 9.27798 65.4545 9.65148C65.4545 10.0141 65.5341 10.3251 65.6925 10.5844C65.8848 10.8979 66.1524 11.0546 66.498 11.0546C66.8367 11.0546 67.1018 10.8954 67.2932 10.5761C67.4584 10.3118 67.5397 9.9983 67.5397 9.63564Z" fill="white"/>
<path d="M72.7567 11.6049H71.9597L71.8937 11.1521H71.8691C71.5964 11.5131 71.2076 11.6941 70.7029 11.6941C70.326 11.6941 70.0211 11.5748 69.7916 11.3381C69.5832 11.123 69.479 10.8554 69.479 10.5377C69.479 10.0575 69.6823 9.6915 70.0914 9.43805C70.4996 9.1846 71.0738 9.06038 71.8132 9.06622V8.99285C71.8132 8.47512 71.5371 8.21667 70.984 8.21667C70.5902 8.21667 70.243 8.31421 69.9432 8.50763L69.7628 7.93404C70.1337 7.70811 70.5919 7.59473 71.1323 7.59473C72.1757 7.59473 72.6991 8.13664 72.6991 9.22045V10.6678C72.6991 11.0604 72.7186 11.3731 72.7567 11.6049ZM71.8352 10.2542V9.64814C70.8562 9.63147 70.3666 9.89575 70.3666 10.4402C70.3666 10.6453 70.4225 10.7987 70.5369 10.9012C70.6512 11.0037 70.7969 11.0546 70.9705 11.0546C71.1653 11.0546 71.3474 10.9937 71.5134 10.8729C71.6802 10.7511 71.7827 10.5969 71.8208 10.4076C71.8301 10.3651 71.8352 10.3134 71.8352 10.2542Z" fill="white"/>
<path d="M77.8001 11.6045H77.0124L76.9709 10.9734H76.9463C76.6948 11.4536 76.2663 11.6937 75.6641 11.6937C75.183 11.6937 74.7824 11.5078 74.4648 11.1359C74.1472 10.7641 73.9888 10.2814 73.9888 9.68863C73.9888 9.05251 74.1608 8.53728 74.5063 8.14377C74.8409 7.77694 75.2508 7.59353 75.7386 7.59353C76.2747 7.59353 76.6499 7.77111 76.8633 8.1271H76.8803V5.87109H77.7687V10.5457C77.7687 10.9284 77.7789 11.281 77.8001 11.6045ZM76.8803 9.94708V9.29179C76.8803 9.1784 76.8718 9.0867 76.8557 9.01666C76.8058 8.80657 76.6982 8.62983 76.5347 8.48726C76.3696 8.3447 76.1705 8.273 75.941 8.273C75.6099 8.273 75.3507 8.40222 75.1601 8.66151C74.9713 8.92079 74.8756 9.25177 74.8756 9.65612C74.8756 10.0446 74.9662 10.3598 75.1483 10.6024C75.3405 10.8608 75.5997 10.99 75.9241 10.99C76.2154 10.99 76.4483 10.8825 76.6254 10.6666C76.7964 10.4673 76.8803 10.2272 76.8803 9.94708Z" fill="white"/>
<path d="M85.3914 9.60729C85.3914 10.2117 85.216 10.7069 84.8654 11.0955C84.4979 11.4948 84.0117 11.6941 83.4028 11.6941C82.8175 11.6941 82.3509 11.5031 82.0019 11.1196C81.6547 10.737 81.4811 10.2542 81.4811 9.67232C81.4811 9.06372 81.6598 8.56433 82.0189 8.17665C82.378 7.78898 82.8607 7.59473 83.4697 7.59473C84.0549 7.59473 84.5266 7.78564 84.8824 8.16832C85.2211 8.54015 85.3914 9.02036 85.3914 9.60729ZM84.4716 9.63564C84.4716 9.27298 84.392 8.962 84.2336 8.70272C84.0464 8.38925 83.7822 8.23251 83.4366 8.23251C83.0809 8.23251 82.8099 8.38925 82.6227 8.70272C82.4635 8.962 82.3848 9.27798 82.3848 9.65148C82.3848 10.0141 82.4644 10.3251 82.6227 10.5844C82.815 10.8979 83.0826 11.0546 83.4282 11.0546C83.7669 11.0546 84.0337 10.8954 84.2251 10.5761C84.3886 10.3118 84.4716 9.9983 84.4716 9.63564Z" fill="white"/>
<path d="M90.1637 11.6044H89.277V9.35342C89.277 8.65977 89.0093 8.31295 88.4715 8.31295C88.2081 8.31295 87.9955 8.40799 87.8312 8.59891C87.6669 8.78983 87.5848 9.01493 87.5848 9.27255V11.6036H86.6963V8.79733C86.6963 8.45218 86.6862 8.07785 86.665 7.67267H87.4442L87.4857 8.28711H87.5103C87.6144 8.09619 87.7686 7.93862 87.9701 7.81273C88.2115 7.666 88.48 7.5918 88.7756 7.5918C89.1474 7.5918 89.4574 7.71018 89.7038 7.94779C90.0112 8.23875 90.1637 8.67311 90.1637 9.25004V11.6044Z" fill="white"/>
<path d="M96.1371 8.32854H95.1598V10.2377C95.1598 10.7229 95.3334 10.9656 95.6772 10.9656C95.8365 10.9656 95.9686 10.9522 96.0728 10.9247L96.0956 11.5875C95.9203 11.6525 95.6899 11.685 95.4062 11.685C95.0556 11.685 94.7829 11.58 94.5855 11.3699C94.3873 11.1598 94.2891 10.8063 94.2891 10.3103V8.32854H93.7056V7.67408H94.2891V6.95376L95.1589 6.69531V7.67325H96.1363V8.32854H96.1371Z" fill="white"/>
<path d="M100.836 11.6045H99.9478V9.37016C99.9478 8.66567 99.6801 8.31302 99.144 8.31302C98.7324 8.31302 98.4512 8.51728 98.2971 8.92579C98.2708 9.01166 98.2556 9.11671 98.2556 9.2401V11.6037H97.3688V5.87109H98.2556V8.23965H98.2725C98.552 7.80863 98.9526 7.59353 99.4718 7.59353C99.8394 7.59353 100.143 7.71192 100.385 7.94952C100.685 8.24549 100.836 8.68568 100.836 9.26761V11.6045Z" fill="white"/>
<path d="M105.683 9.45358C105.683 9.61032 105.671 9.74204 105.65 9.84959H102.988C103 10.2381 103.127 10.5341 103.374 10.7392C103.599 10.9226 103.889 11.0143 104.245 11.0143C104.639 11.0143 104.998 10.9526 105.322 10.8284L105.461 11.4353C105.082 11.597 104.636 11.6779 104.121 11.6779C103.502 11.6779 103.015 11.4987 102.663 11.1402C102.309 10.7817 102.134 10.3006 102.134 9.69702C102.134 9.10426 102.297 8.6107 102.627 8.2172C102.971 7.79701 103.436 7.58691 104.022 7.58691C104.597 7.58691 105.033 7.79701 105.328 8.2172C105.566 8.55068 105.683 8.96336 105.683 9.45358ZM104.836 9.22765C104.843 8.96836 104.785 8.74493 104.664 8.55651C104.51 8.31391 104.276 8.19218 103.958 8.19218C103.668 8.19218 103.432 8.31057 103.252 8.54818C103.104 8.73743 103.017 8.96336 102.988 9.22765H104.836Z" fill="white"/>
</svg>
