<svg width="120" height="35" viewBox="0 0 120 35" fill="none" xmlns="http://www.w3.org/2000/svg">
<path d="M115.556 0H4.44444C1.98985 0 0 1.95875 0 4.375V30.625C0 33.0412 1.98985 35 4.44444 35H115.556C118.01 35 120 33.0412 120 30.625V4.375C120 1.95875 118.01 0 115.556 0Z" fill="black"/>
<path d="M115.556 0.7C116.546 0.7 117.495 1.08719 118.195 1.77638C118.896 2.46558 119.289 3.40033 119.289 4.375V30.625C119.289 31.5997 118.896 32.5344 118.195 33.2236C117.495 33.9128 116.546 34.3 115.556 34.3H4.44444C3.4543 34.3 2.50471 33.9128 1.80458 33.2236C1.10444 32.5344 0.711111 31.5997 0.711111 30.625V4.375C0.711111 3.40033 1.10444 2.46558 1.80458 1.77638C2.50471 1.08719 3.4543 0.7 4.44444 0.7H115.556ZM115.556 0H4.44444C3.2657 0 2.13524 0.460936 1.30175 1.28141C0.468253 2.10188 0 3.21468 0 4.375V30.625C0 31.7853 0.468253 32.8981 1.30175 33.7186C2.13524 34.5391 3.2657 35 4.44444 35H115.556C116.734 35 117.865 34.5391 118.698 33.7186C119.532 32.8981 120 31.7853 120 30.625V4.375C120 3.21468 119.532 2.10188 118.698 1.28141C117.865 0.460936 116.734 0 115.556 0Z" fill="#A6A6A6"/>
<path d="M60.569 19.0317C59.8226 19.0352 59.0939 19.2562 58.475 19.6669C57.8561 20.0776 57.3747 20.6596 57.0915 21.3394C56.8083 22.0193 56.736 22.7664 56.8838 23.4866C57.0315 24.2068 57.3927 24.8678 57.9217 25.3861C58.4508 25.9045 59.1239 26.2569 59.8563 26.399C60.5886 26.5411 61.3473 26.4664 62.0365 26.1844C62.7258 25.9025 63.3148 25.4258 63.7291 24.8147C64.1434 24.2035 64.3645 23.4852 64.3645 22.7505C64.3718 22.2587 64.2784 21.7705 64.09 21.3149C63.9016 20.8593 63.622 20.4458 63.2679 20.0988C62.9137 19.7518 62.4923 19.4785 62.0286 19.2952C61.565 19.1119 61.0686 19.0223 60.569 19.0317ZM60.569 25.008C60.1099 25.0396 59.6519 24.9345 59.2543 24.7064C58.8567 24.4784 58.538 24.1378 58.3397 23.7291C58.1413 23.3204 58.0724 22.8624 58.142 22.4146C58.2116 21.9668 58.4164 21.55 58.7298 21.2184C59.0433 20.8867 59.4508 20.6555 59.8994 20.5549C60.3481 20.4543 60.8171 20.4888 61.2456 20.654C61.674 20.8193 62.0421 21.1076 62.3019 21.4815C62.5617 21.8553 62.7012 22.2975 62.7023 22.7505C62.7166 23.0375 62.6724 23.3244 62.5723 23.5943C62.4722 23.8643 62.3182 24.1117 62.1193 24.3221C61.9205 24.5325 61.6809 24.7016 61.4146 24.8194C61.1484 24.9372 60.8608 25.0013 60.569 25.008ZM52.2934 19.0317C51.5466 19.0334 50.8171 19.253 50.197 19.6627C49.577 20.0724 49.0941 20.6538 48.8096 21.3334C48.525 22.0131 48.4514 22.7605 48.5982 23.4813C48.745 24.2021 49.1055 24.8639 49.6342 25.3831C50.1629 25.9023 50.836 26.2556 51.5686 26.3984C52.3011 26.5412 53.0603 26.467 53.7501 26.1853C54.4398 25.9036 55.0293 25.4269 55.444 24.8156C55.8588 24.2042 56.0801 23.4856 56.0801 22.7505C56.0873 22.2587 55.994 21.7705 55.8056 21.3149C55.6172 20.8593 55.3376 20.4458 54.9834 20.0988C54.6293 19.7518 54.2078 19.4785 53.7442 19.2952C53.2805 19.1119 52.7841 19.0223 52.2845 19.0317H52.2934ZM52.2934 25.008C51.8342 25.0414 51.3753 24.9379 50.9767 24.711C50.578 24.4841 50.2579 24.1443 50.0582 23.7358C49.8584 23.3274 49.7882 22.8692 49.8567 22.4209C49.9252 21.9726 50.1292 21.555 50.4422 21.2225C50.7551 20.8899 51.1625 20.6578 51.6114 20.5563C52.0602 20.4549 52.5297 20.4888 52.9586 20.6537C53.3876 20.8186 53.7562 21.1068 54.0165 21.4807C54.2768 21.8547 54.4166 22.2972 54.4179 22.7505C54.4322 23.0375 54.388 23.3244 54.2879 23.5943C54.1877 23.8643 54.0337 24.1117 53.8349 24.3221C53.6361 24.5325 53.3964 24.7016 53.1302 24.8194C52.8639 24.9372 52.5764 25.0013 52.2845 25.008H52.2934ZM42.4357 20.178V21.753H46.2757C46.2154 22.4948 45.9022 23.1948 45.3868 23.7392C45.0026 24.1244 44.5407 24.4262 44.031 24.6251C43.5212 24.824 42.9747 24.9157 42.4268 24.8942C41.2952 24.8942 40.2099 24.4517 39.4098 23.6641C38.6096 22.8764 38.1601 21.8081 38.1601 20.6942C38.1601 19.5803 38.6096 18.512 39.4098 17.7244C40.2099 16.9367 41.2952 16.4942 42.4268 16.4942C43.5092 16.4768 44.5546 16.8828 45.3334 17.623L46.4623 16.5117C45.9365 15.9876 45.3092 15.5727 44.6175 15.2917C43.9259 15.0106 43.1839 14.8691 42.4357 14.8755C41.6454 14.8452 40.8571 14.9723 40.118 15.2491C39.3788 15.5259 38.7041 15.9467 38.1341 16.4864C37.5641 17.026 37.1107 17.6734 36.801 18.3896C36.4913 19.1059 36.3316 19.8764 36.3316 20.6548C36.3316 21.4333 36.4913 22.2038 36.801 22.92C37.1107 23.6363 37.5641 24.2837 38.1341 24.8233C38.7041 25.363 39.3788 25.7838 40.118 26.0606C40.8571 26.3374 41.6454 26.4645 42.4357 26.4342C43.1965 26.4681 43.9559 26.3411 44.6627 26.0619C45.3695 25.7827 46.0074 25.3577 46.5334 24.8155C47.4647 23.8083 47.9619 22.4843 47.9201 21.123C47.923 20.7913 47.8932 20.4602 47.8312 20.1342L42.4357 20.178ZM82.7112 21.403C82.4794 20.7316 82.0459 20.1454 81.4681 19.722C80.8903 19.2985 80.1955 19.0578 79.4757 19.0317C78.9894 19.0308 78.5082 19.128 78.0616 19.3174C77.6151 19.5068 77.2128 19.7844 76.8795 20.1329C76.5463 20.4815 76.2892 20.8936 76.1242 21.3438C75.9592 21.794 75.8897 22.2728 75.9201 22.7505C75.9093 23.2395 75.9987 23.7257 76.1831 24.18C76.3674 24.6342 76.6429 25.0472 76.993 25.3944C77.3432 25.7415 77.7608 26.0155 78.2209 26.2002C78.6811 26.3849 79.1743 26.4764 79.6712 26.4692C80.293 26.4725 80.9059 26.324 81.455 26.0369C82.0042 25.7498 82.4724 25.3332 82.8179 24.8242L81.529 23.9492C81.3366 24.2649 81.0643 24.526 80.7386 24.707C80.413 24.888 80.0452 24.9827 79.6712 24.9817C79.2862 24.9962 78.9056 24.8962 78.5791 24.6949C78.2525 24.4936 77.995 24.2003 77.8401 23.853L82.8979 21.7967L82.7112 21.403ZM77.5557 22.6455C77.5376 22.3748 77.5747 22.1034 77.6646 21.847C77.7544 21.5906 77.8954 21.3544 78.0792 21.1524C78.2629 20.9503 78.4858 20.7863 78.7348 20.6701C78.9837 20.5539 79.2537 20.4877 79.529 20.4755C79.8157 20.4569 80.1017 20.5216 80.3514 20.6616C80.601 20.8016 80.8034 21.0107 80.9334 21.263L77.5557 22.6455ZM73.449 26.2505H75.1112V15.313H73.449V26.2505ZM70.729 19.863H70.6668C70.4162 19.5873 70.1094 19.3668 69.7662 19.216C69.4231 19.0652 69.0514 18.9875 68.6757 18.988C67.7043 19.0343 66.7882 19.4468 66.1174 20.14C65.4466 20.8331 65.0724 21.7538 65.0724 22.7111C65.0724 23.6684 65.4466 24.5891 66.1174 25.2822C66.7882 25.9754 67.7043 26.3879 68.6757 26.4342C69.0523 26.4405 69.4258 26.3653 69.7698 26.2142C70.1138 26.063 70.42 25.8394 70.6668 25.5592H70.7201V26.093C70.7201 27.5192 69.9468 28.2805 68.7023 28.2805C68.2878 28.2709 67.8856 28.1402 67.5469 27.9049C67.2081 27.6696 66.9482 27.3404 66.8001 26.9592L65.3512 27.5542C65.6239 28.2073 66.0887 28.7653 66.6857 29.1566C67.2828 29.5479 67.985 29.7547 68.7023 29.7505C70.649 29.7505 72.2579 28.6217 72.2579 25.8742V19.2505H70.729V19.863ZM68.8268 25.008C68.2534 24.9582 67.7197 24.6989 67.331 24.281C66.9423 23.8631 66.7267 23.3171 66.7267 22.7505C66.7267 22.1839 66.9423 21.6378 67.331 21.2199C67.7197 20.8021 68.2534 20.5427 68.8268 20.493C69.111 20.5073 69.3895 20.5776 69.6458 20.6995C69.9021 20.8214 70.131 20.9927 70.3191 21.203C70.5071 21.4134 70.6505 21.6587 70.7407 21.9245C70.831 22.1902 70.8663 22.4711 70.8445 22.7505C70.8688 23.0311 70.835 23.3136 70.7451 23.581C70.6553 23.8484 70.5113 24.095 70.3218 24.306C70.1324 24.5171 69.9014 24.6881 69.6429 24.8087C69.3844 24.9294 69.1037 24.9972 68.8179 25.008H68.8268ZM90.4979 15.313H86.5245V26.2505H88.1868V22.103H90.5068C90.9805 22.1365 91.4562 22.0735 91.9041 21.9181C92.352 21.7627 92.7627 21.5181 93.1103 21.1995C93.458 20.881 93.7353 20.4954 93.9249 20.0667C94.1145 19.638 94.2123 19.1755 94.2123 18.708C94.2123 18.2404 94.1145 17.7779 93.9249 17.3492C93.7353 16.9206 93.458 16.5349 93.1103 16.2164C92.7627 15.8979 92.352 15.6533 91.9041 15.4978C91.4562 15.3424 90.9805 15.2795 90.5068 15.313H90.4979ZM90.4979 20.563H88.1779V16.8355H90.5334C91.0391 16.8355 91.5241 17.0332 91.8816 17.3852C92.2392 17.7372 92.4401 18.2146 92.4401 18.7123C92.4401 19.2101 92.2392 19.6875 91.8816 20.0395C91.5241 20.3915 91.0391 20.5892 90.5334 20.5892L90.4979 20.563ZM100.747 18.988C100.142 18.9524 99.5391 19.0916 99.0132 19.3885C98.4874 19.6854 98.0611 20.1271 97.7868 20.6592L99.2623 21.263C99.4078 20.999 99.6281 20.7824 99.8964 20.6395C100.165 20.4966 100.469 20.4335 100.773 20.458C100.984 20.4337 101.198 20.4511 101.402 20.509C101.606 20.5669 101.797 20.6643 101.962 20.7955C102.128 20.9266 102.265 21.0889 102.366 21.2728C102.467 21.4567 102.53 21.6586 102.551 21.8667V21.9805C102.017 21.7022 101.422 21.558 100.818 21.5605C99.2268 21.5605 97.6179 22.4355 97.6179 24.0192C97.6336 24.3569 97.7179 24.6881 97.8659 24.9931C98.0138 25.2982 98.2224 25.571 98.4793 25.7953C98.7362 26.0196 99.0362 26.191 99.3615 26.2992C99.6869 26.4075 100.031 26.4504 100.373 26.4255C100.792 26.4551 101.211 26.3732 101.586 26.1884C101.962 26.0037 102.28 25.7229 102.507 25.3755H102.56V26.2505H104.16V22.0417C104.16 20.1255 102.685 19.0142 100.791 19.0142L100.747 18.988ZM100.542 24.9817C100 24.9817 99.2445 24.7105 99.2445 24.0542C99.2445 23.1792 100.187 22.8905 101.022 22.8905C101.55 22.8776 102.072 23.0046 102.533 23.258C102.478 23.7317 102.25 24.1697 101.893 24.4913C101.535 24.8128 101.071 24.9964 100.587 25.008L100.542 24.9817ZM109.991 19.2505L108.089 23.993H108.036L106.062 19.2505H104.285L107.245 25.883L105.556 29.5667H107.289L111.84 19.2505H109.991ZM95.049 26.2505H96.7112V15.313H95.049V26.2505Z" fill="white"/>
<path d="M42.0957 9.01506C42.1108 9.336 42.0595 9.65662 41.9449 9.95745C41.8303 10.2583 41.6548 10.533 41.429 10.7651C41.177 11.0228 40.8725 11.2254 40.5356 11.3596C40.1986 11.4938 39.8367 11.5565 39.4735 11.5438C38.9224 11.5396 38.3848 11.3753 37.9281 11.0716C37.4714 10.7679 37.1158 10.3383 36.9061 9.83661C36.6963 9.33491 36.6417 8.78343 36.7489 8.25127C36.8562 7.71911 37.1206 7.22994 37.509 6.84507C37.7643 6.5885 38.0704 6.38623 38.4083 6.25078C38.7462 6.11532 39.1087 6.04956 39.4735 6.05757C39.8493 6.05633 40.2213 6.13078 40.5668 6.27632C40.8885 6.40403 41.1748 6.60493 41.4024 6.86257L40.9313 7.32631C40.7538 7.11858 40.5298 6.95432 40.2768 6.8465C40.0238 6.73868 39.7488 6.69026 39.4735 6.70507C39.1958 6.70372 38.9208 6.75759 38.6648 6.86343C38.4088 6.96927 38.1771 7.12491 37.9837 7.32101C37.7903 7.51711 37.6391 7.74964 37.5392 8.00465C37.4393 8.25967 37.3928 8.53191 37.4024 8.80506C37.3965 9.21293 37.5136 9.61336 37.7387 9.95584C37.9638 10.2983 38.2869 10.5675 38.6672 10.7294C39.0475 10.8913 39.4681 10.9388 39.8757 10.8657C40.2834 10.7926 40.66 10.6023 40.9579 10.3188C41.2314 10.027 41.3892 9.64813 41.4024 9.25132H39.4735V8.62132H42.0601C42.0839 8.75127 42.0958 8.88304 42.0957 9.01506ZM46.1668 6.82756H43.7668V8.49006H45.9535V9.12007H43.7668V10.7826H46.1668V11.4301H43.0557V6.18007H46.1668V6.82756ZM49.0824 11.4301H48.3979V6.82756H46.9046V6.18007H50.6113V6.82756H49.0824V11.4301ZM53.2246 11.4301V6.18007H53.909V11.4301H53.2246ZM56.949 11.4301H56.2646V6.82756H54.7713V6.18007H58.4335V6.82756H56.949V11.4301ZM65.3757 10.7476C64.8561 11.2562 64.153 11.5418 63.4201 11.5418C62.6873 11.5418 61.9842 11.2562 61.4646 10.7476C60.9595 10.2213 60.6781 9.5247 60.6781 8.80069C60.6781 8.07668 60.9595 7.38011 61.4646 6.85382C61.7207 6.59984 62.0254 6.39827 62.361 6.26071C62.6966 6.12316 63.0566 6.05234 63.4201 6.05234C63.7837 6.05234 64.1437 6.12316 64.4793 6.26071C64.8149 6.39827 65.1196 6.59984 65.3757 6.85382C65.8828 7.3791 66.1655 8.07606 66.1655 8.80069C66.1655 9.52533 65.8828 10.2223 65.3757 10.7476ZM61.9713 10.3101C62.3561 10.6873 62.8771 10.8991 63.4201 10.8991C63.9632 10.8991 64.4842 10.6873 64.869 10.3101C65.2488 9.89796 65.4592 9.36147 65.4592 8.80506C65.4592 8.24866 65.2488 7.71217 64.869 7.30007C64.4842 6.92283 63.9632 6.71104 63.4201 6.71104C62.8771 6.71104 62.3561 6.92283 61.9713 7.30007C61.5915 7.71217 61.3811 8.24866 61.3811 8.80506C61.3811 9.36147 61.5915 9.89796 61.9713 10.3101ZM67.1268 11.4301V6.18007H67.9624L70.5579 10.2663V6.18007H71.2424V11.4301H70.5313L67.8201 7.15132V11.4301H67.1268Z" fill="white"/>
<path fill-rule="evenodd" clip-rule="evenodd" d="M63.4201 6.13984C63.0683 6.13984 62.72 6.20838 62.3952 6.34149C62.0707 6.47447 61.7762 6.66927 61.5285 6.91469C61.0394 7.42465 60.767 8.09939 60.767 8.80069C60.767 9.5019 61.0394 10.1766 61.5283 10.6865C62.0312 11.1783 62.7113 11.4543 63.4201 11.4543C64.1291 11.4543 64.8092 11.1782 65.3121 10.6864C65.803 10.1775 66.0767 9.50248 66.0767 8.80069C66.0767 8.09882 65.8029 7.42375 65.312 6.91481C65.0642 6.66933 64.7696 6.47449 64.4451 6.34149C64.1203 6.20838 63.772 6.13984 63.4201 6.13984ZM62.3268 6.17994C62.6733 6.03795 63.0449 5.96484 63.4201 5.96484C63.7954 5.96484 64.167 6.03795 64.5134 6.17994C64.8599 6.32193 65.1744 6.53 65.4388 6.79217L65.4402 6.79353C65.9629 7.33508 66.2544 8.05362 66.2544 8.80069C66.2544 9.54776 65.9629 10.2663 65.4401 10.8078L65.4384 10.8096C64.9021 11.3346 64.1765 11.6293 63.4201 11.6293C62.6638 11.6293 61.9382 11.3346 61.4019 10.8096L61.3999 10.8077C60.8793 10.2651 60.5892 9.54705 60.5892 8.80069C60.5892 8.05434 60.8793 7.33626 61.4 6.79373L61.4015 6.79215C61.6659 6.52998 61.9804 6.32193 62.3268 6.17994ZM39.4715 6.14504C39.1189 6.13731 38.7685 6.20088 38.4418 6.33182C38.1152 6.46276 37.8193 6.65828 37.5725 6.90629L37.5721 6.90674C37.196 7.2794 36.94 7.75303 36.8361 8.2683C36.7323 8.78356 36.7852 9.31754 36.9883 9.80331C37.1914 10.2891 37.5356 10.7051 37.9778 10.9991C38.42 11.2932 38.9405 11.4522 39.4742 11.4563L39.4766 11.4563C39.8274 11.4686 40.1769 11.408 40.5022 11.2785C40.8276 11.1489 41.1215 10.9533 41.3649 10.7045C41.5823 10.481 41.7513 10.2164 41.8617 9.92672C41.9721 9.637 42.0215 9.32821 42.0069 9.01912L42.0957 9.01506L42.0068 9.01503C42.0069 8.91253 41.9994 8.8102 41.9845 8.70882H39.5624V9.16382H41.4942L41.4912 9.25417C41.4773 9.67198 41.3112 10.0709 41.0233 10.3782L41.0198 10.3818C40.7092 10.6773 40.3166 10.8756 39.8917 10.9518C39.4667 11.0279 39.0284 10.9785 38.6319 10.8097C38.2355 10.6409 37.8987 10.3604 37.664 10.0034C37.4298 9.64698 37.3078 9.23038 37.3135 8.80596C37.3038 8.52174 37.3524 8.23852 37.4563 7.97317C37.5605 7.70717 37.7182 7.46462 37.92 7.26006C38.1217 7.05551 38.3633 6.89316 38.6304 6.78276C38.8966 6.67269 39.1826 6.61651 39.4713 6.61756C39.7594 6.60246 40.0473 6.65333 40.3121 6.7662C40.5481 6.86678 40.7601 7.01415 40.9352 7.19874L41.2797 6.85953C41.0711 6.64124 40.8166 6.46983 40.5336 6.35746L40.5318 6.35678C40.1975 6.21593 39.8374 6.14387 39.4738 6.14507L39.4715 6.14504ZM42.1846 9.01306C42.1999 9.34516 42.1467 9.67688 42.0281 9.98817C41.9093 10.3001 41.7273 10.585 41.4932 10.8256C41.2325 11.0922 40.9174 11.3019 40.5689 11.4407C40.2208 11.5793 39.8469 11.6443 39.4716 11.6313C38.9034 11.6267 38.3492 11.4572 37.8783 11.1441C37.4071 10.8308 37.0403 10.3875 36.8239 9.86991C36.6075 9.35228 36.5511 8.78329 36.6617 8.23424C36.7724 7.68529 37.0451 7.18068 37.4458 6.78361C37.7095 6.5186 38.0257 6.30967 38.3748 6.16974C38.7236 6.02991 39.0978 5.96196 39.4743 5.97006C39.8615 5.96895 40.2449 6.04566 40.6009 6.19551C40.9353 6.32841 41.2329 6.53732 41.4694 6.80515L41.5238 6.86673L40.9256 7.45564L40.8632 7.38262C40.6947 7.18528 40.4818 7.02922 40.2415 6.9268C40.0011 6.82437 39.7399 6.77837 39.4783 6.79244L39.473 6.79272C39.2074 6.79144 38.9442 6.84282 38.6992 6.9441C38.4542 7.04538 38.2326 7.19431 38.0475 7.38196C37.8624 7.56961 37.7178 7.79212 37.6222 8.03614C37.5266 8.28016 37.482 8.54067 37.4912 8.80205L37.4914 8.8063C37.4858 9.19688 37.5977 9.58034 37.8133 9.90831C38.0289 10.2363 38.3383 10.494 38.7025 10.6491C39.0667 10.8042 39.4694 10.8496 39.8598 10.7796C40.2494 10.7098 40.6093 10.5282 40.8943 10.2576C41.1315 10.0038 41.2764 9.68067 41.3079 9.33882H39.3846V8.53382H42.1345L42.1476 8.60585C42.1722 8.74024 42.1845 8.87651 42.1846 9.01306ZM42.9668 6.09257H46.2557V6.91506H43.8557V8.40256H46.0424V9.20757H43.8557V10.6951H46.2557V11.5176H42.9668V6.09257ZM43.1446 6.26757V11.3426H46.0779V10.8701H43.6779V9.03257H45.8646V8.57756H43.6779V6.74006H46.0779V6.26757H43.1446ZM46.8157 6.09257H50.7001V6.91506H49.1713V11.5176H48.309V6.91506H46.8157V6.09257ZM46.9935 6.26757V6.74006H48.4868V11.3426H48.9935V6.74006H50.5224V6.26757H46.9935ZM53.1357 6.09257H53.9979V11.5176H53.1357V6.09257ZM53.3135 6.26757V11.3426H53.8201V6.26757H53.3135ZM54.6824 6.09257H58.5224V6.91506H57.0379V11.5176H56.1757V6.91506H54.6824V6.09257ZM54.8601 6.26757V6.74006H56.3535V11.3426H56.8601V6.74006H58.3446V6.26757H54.8601ZM67.0379 6.09257H68.0116L70.469 9.96133V6.09257H71.3313V11.5176H70.4819L67.909 7.45694V11.5176H67.0379V6.09257ZM67.2157 6.26757V11.3426H67.7313V6.84569L70.5806 11.3426H71.1535V6.26757H70.6468V10.5713L67.9131 6.26757H67.2157ZM61.9085 7.23806C62.31 6.8445 62.8535 6.62354 63.4201 6.62354C63.9867 6.62354 64.5303 6.8445 64.9318 7.23806L64.935 7.2412C65.3296 7.66941 65.5481 8.22693 65.5481 8.80506C65.5481 9.3832 65.3295 9.94065 64.9349 10.3689L64.9318 10.3721C64.5304 10.7657 63.9867 10.9866 63.4201 10.9866C62.8535 10.9866 62.31 10.7656 61.9085 10.3721L61.9713 10.3101L61.9054 10.3689C61.5108 9.94065 61.2922 9.3832 61.2922 8.80506C61.2922 8.22693 61.5108 7.66948 61.9054 7.24128L61.9085 7.23806ZM62.0356 10.2496C62.4036 10.6096 62.9013 10.8116 63.4201 10.8116C63.939 10.8116 64.4367 10.6096 64.8047 10.2496C65.1687 9.85384 65.3703 9.339 65.3703 8.80506C65.3703 8.27113 65.1687 7.75629 64.8047 7.36049C64.4367 7.00058 63.939 6.79854 63.4201 6.79854C62.9013 6.79854 62.4036 7.00058 62.0356 7.36049C61.6716 7.75629 61.47 8.27113 61.47 8.80506C61.47 9.339 61.6716 9.85384 62.0356 10.2496Z" fill="white"/>
<path d="M9.27999 6.59738C8.99027 6.9396 8.84404 7.3777 8.8711 7.82238V27.1774C8.84404 27.6221 8.99027 28.0602 9.27999 28.4024L9.34222 28.4636L20.3556 17.6311V17.3774L9.34222 6.53613L9.27999 6.59738Z" fill="url(#paint0_linear)"/>
<path d="M24 21.2449L20.3555 17.6311V17.3774L24 13.7549L24.08 13.7986L28.4444 16.2399C29.6889 16.9311 29.6889 18.0686 28.4444 18.7686L24.0978 21.2011L24 21.2449Z" fill="url(#paint1_linear)"/>
<path d="M24.1067 21.1925L20.3556 17.5L9.28003 28.4025C9.53368 28.622 9.85727 28.7474 10.1949 28.757C10.5324 28.7665 10.8628 28.6597 11.1289 28.455L24.1156 21.1925" fill="url(#paint2_linear)"/>
<path d="M24.1067 13.8072L11.12 6.54474C10.8539 6.34 10.5235 6.23319 10.1859 6.24278C9.84836 6.25237 9.52477 6.37774 9.27112 6.59724L20.3556 17.4997L24.1067 13.8072Z" fill="url(#paint3_linear)"/>
<path opacity="0.2" d="M24 21.1133L11.12 28.332C10.8634 28.5209 10.5516 28.623 10.2311 28.623C9.91071 28.623 9.59888 28.5209 9.34225 28.332L9.28003 28.3933L9.34225 28.4545C9.5983 28.6448 9.91035 28.7477 10.2311 28.7477C10.5519 28.7477 10.864 28.6448 11.12 28.4545L24.1067 21.192L24 21.1133Z" fill="black"/>
<path opacity="0.12" d="M9.27999 28.28C8.99027 27.9378 8.84404 27.4997 8.8711 27.055V27.1862C8.84404 27.6309 8.99027 28.069 9.27999 28.4112L9.34222 28.35L9.27999 28.28ZM28.4444 18.6375L24 21.1138L24.08 21.1925L28.4444 18.76C28.6921 18.6455 28.9047 18.4687 29.0607 18.2475C29.2168 18.0263 29.3108 17.7684 29.3333 17.5C29.2833 17.7439 29.1772 17.9732 29.0231 18.1704C28.869 18.3676 28.6711 18.5274 28.4444 18.6375Z" fill="black"/>
<path opacity="0.25" d="M11.12 6.66665L28.4444 16.3617C28.671 16.4718 28.869 16.6316 29.0231 16.8288C29.1772 17.0259 29.2833 17.2553 29.3333 17.4992C29.3108 17.2307 29.2168 16.9729 29.0607 16.7517C28.9046 16.5305 28.6921 16.3537 28.4444 16.2392L11.12 6.54415C9.87552 5.8529 8.86218 6.4304 8.86218 7.8304V7.96165C8.88885 6.5529 9.88441 5.9754 11.12 6.66665Z" fill="white"/>
<defs>
<linearGradient id="paint0_linear" x1="19.3778" y1="7.62113" x2="4.69709" y2="22.5348" gradientUnits="userSpaceOnUse">
<stop stop-color="#00A0FF"/>
<stop offset="0.01" stop-color="#00A1FF"/>
<stop offset="0.26" stop-color="#00BEFF"/>
<stop offset="0.51" stop-color="#00D2FF"/>
<stop offset="0.76" stop-color="#00DFFF"/>
<stop offset="1" stop-color="#00E3FF"/>
</linearGradient>
<linearGradient id="paint1_linear" x1="30.0711" y1="17.4999" x2="8.56887" y2="17.4999" gradientUnits="userSpaceOnUse">
<stop stop-color="#FFE000"/>
<stop offset="0.41" stop-color="#FFBD00"/>
<stop offset="0.78" stop-color="#FFA500"/>
<stop offset="1" stop-color="#FF9C00"/>
</linearGradient>
<linearGradient id="paint2_linear" x1="22.0711" y1="19.5125" x2="2.15848" y2="39.7324" gradientUnits="userSpaceOnUse">
<stop stop-color="#FF3A44"/>
<stop offset="1" stop-color="#C31162"/>
</linearGradient>
<linearGradient id="paint3_linear" x1="6.4889" y1="0.157239" x2="15.3778" y2="9.18723" gradientUnits="userSpaceOnUse">
<stop stop-color="#32A071"/>
<stop offset="0.07" stop-color="#2DA771"/>
<stop offset="0.48" stop-color="#15CF74"/>
<stop offset="0.8" stop-color="#06E775"/>
<stop offset="1" stop-color="#00F076"/>
</linearGradient>
</defs>
</svg>
