<svg width="40" height="40" viewBox="0 0 40 40" fill="none" xmlns="http://www.w3.org/2000/svg">
<path fill-rule="evenodd" clip-rule="evenodd" d="M19.8425 40C30.8012 40 39.685 31.0457 39.685 20C39.685 8.9543 30.8012 0 19.8425 0C8.8838 0 0 8.9543 0 20C0 31.0457 8.8838 40 19.8425 40Z" fill="url(#paint0_linear)"/>
<path fill-rule="evenodd" clip-rule="evenodd" d="M4.43408 32.6024C4.43884 32.5545 4.44128 32.5057 4.44128 32.4561C4.44128 32.0692 4.30127 31.7526 4.05625 31.5063L6.22644 27.8479C6.68148 28.0589 7.20652 28.1997 7.73157 28.1997C8.85167 28.1997 9.83175 27.7072 10.4968 26.8981L13.7521 29.0791C13.6471 29.3253 13.5771 29.6068 13.5771 29.9234C13.5771 31.049 14.4872 31.9637 15.6073 31.9637C16.7274 31.9637 17.6374 31.049 17.6374 29.9234V29.853L24.9881 28.27C25.3731 29.3957 26.4582 30.24 27.7183 30.24C28.4534 30.24 29.1184 29.9585 29.6085 29.5012L32.7238 32.2803C32.6188 32.4561 32.5837 32.6672 32.5837 32.9134C32.5837 33.6172 33.0758 34.1755 33.7441 34.2709C34.2854 33.7352 34.7963 33.1685 35.2741 32.5735C35.1286 31.9712 34.6016 31.5415 33.9489 31.5415C33.6688 31.5415 33.4238 31.6119 33.2138 31.7526L30.1335 28.9736C30.4486 28.5163 30.6586 27.9182 30.6586 27.3202C30.6586 25.8779 29.6085 24.6819 28.2084 24.4357L28.4884 16.0282C28.9084 15.9579 29.2935 15.7468 29.5735 15.4302L35.279 18.8424L39.2323 24.2671C39.3009 23.9491 39.362 23.6282 39.4153 23.3047L36.014 18.5962L39.2512 15.8213C39.1956 15.5577 39.1349 15.296 39.0691 15.0363L35.489 18.1389L29.9235 14.797C29.9935 14.5859 30.0285 14.41 30.0285 14.1638C30.0285 13.1437 29.1885 12.2994 28.1734 12.2994C27.7183 12.2994 27.2983 12.4753 26.9483 12.7567L21.2428 8.42986C21.3128 8.25397 21.3478 8.07809 21.3478 7.9022C21.3478 7.12829 20.7527 6.53027 19.9826 6.53027C19.2126 6.53027 18.6175 7.12829 18.6175 7.9022C18.6175 8.32433 18.7925 8.67611 19.0726 8.92235L16.4123 14.3045C16.1673 14.2342 15.9223 14.199 15.6773 14.199C14.8372 14.199 14.1021 14.6211 13.6821 15.2895L7.06651 12.229C7.10152 12.0532 7.13652 11.8773 7.13652 11.7014C7.13652 10.5757 6.22644 9.66108 5.10634 9.66108C3.98624 9.66108 3.04116 10.5405 3.04116 11.7014C3.04116 12.8622 3.95124 13.7417 5.07134 13.7417C5.7714 13.7417 6.40145 13.3899 6.75148 12.8622L13.3671 15.9227C13.2971 16.1337 13.2621 16.38 13.2621 16.5911C13.2621 17.1187 13.4371 17.6464 13.7521 18.0333L10.0068 21.8677C9.41172 21.3752 8.60665 21.0586 7.76657 21.0586C6.47146 21.0586 5.35136 21.7622 4.72131 22.7823L0.00622559 20.5091C0.0131449 20.7881 0.0257359 21.0658 0.0438868 21.3419L4.40628 23.4155C4.26627 23.8025 4.19626 24.1894 4.19626 24.6115C4.19626 25.7724 4.75631 26.8277 5.63139 27.4609L3.4612 31.1546C3.42685 31.1431 3.38875 31.1316 3.34814 31.1213C3.68786 31.6321 4.05033 32.1264 4.43408 32.6024ZM20.0176 9.27412C19.9126 9.27412 19.8426 9.27412 19.7376 9.23895L17.0774 14.6563C17.6724 15.0784 18.0925 15.8172 18.0925 16.6262C18.0925 17.0835 17.9525 17.5409 17.7074 17.9278L25.8632 25.1744C26.3182 24.7523 26.9133 24.506 27.5433 24.4357L27.8233 16.0282C26.9833 15.8523 26.3882 15.1136 26.3882 14.2342C26.3882 13.9527 26.4582 13.6713 26.5982 13.4251L20.8577 8.9927C20.6127 9.16859 20.3327 9.27412 20.0176 9.27412ZM15.6073 27.8127C16.4473 27.8127 17.1824 28.3755 17.4974 29.1143L24.8481 27.4609V27.2147C24.8481 26.5815 25.0581 26.0186 25.3731 25.5613L17.2524 18.3499C16.8324 18.7017 16.3073 18.9128 15.7123 18.9128C15.1522 18.9128 14.6622 18.7369 14.2771 18.4555L10.4968 22.2898C10.9869 22.923 11.3019 23.6969 11.3019 24.5764C11.3019 25.2096 11.1619 25.7724 10.8818 26.2649L14.1371 28.4459C14.4872 28.0589 15.0122 27.8127 15.6073 27.8127Z" fill="white" fill-opacity="0.8"/>
<defs>
<linearGradient id="paint0_linear" x1="19.8425" y1="-20" x2="-20.1562" y2="19.6838" gradientUnits="userSpaceOnUse">
<stop stop-color="#FCA800"/>
<stop offset="1" stop-color="#F76B1C"/>
</linearGradient>
</defs>
</svg>
