<svg width="24" height="24" viewBox="0 0 24 24" fill="none" xmlns="http://www.w3.org/2000/svg">
<path fill-rule="evenodd" clip-rule="evenodd" d="M16.3864 17.8007L19.2929 20.7072L20.7071 19.293L4.70708 3.29297L3.29286 4.70718L5.95332 7.36764C4.71263 8.41932 3.58541 9.8086 2.62852 11.5097L2.35275 12L2.6285 12.4902C4.99636 16.7 8.40727 19.0001 11.9999 19.0001C13.516 19.0001 14.9997 18.5905 16.3864 17.8007ZM14.9042 16.3185L14.0319 15.4463C13.4364 15.7981 12.7418 16.0001 12 16.0001C9.79082 16.0001 7.99996 14.2092 7.99996 12.0001C7.99996 11.2583 8.20189 10.5636 8.55378 9.9681L7.37247 8.78679C6.40471 9.57774 5.48418 10.6419 4.65837 12C6.75413 15.447 9.45997 17.0001 11.9999 17.0001C12.9583 17.0001 13.9402 16.779 14.9042 16.3185ZM10.0677 11.482C10.0235 11.6473 9.99996 11.8209 9.99996 12.0001C9.99996 13.1046 10.8954 14.0001 12 14.0001C12.1791 14.0001 12.3528 13.9765 12.518 13.9323L10.0677 11.482ZM21.3717 12.4905C20.7144 13.6589 19.9768 14.6802 19.1773 15.546L17.7632 14.1319C18.3166 13.5242 18.8463 12.8151 19.3418 12.0002C17.2459 8.5532 14.54 7.0001 12.0001 7.00008C11.5884 7.00007 11.1723 7.04087 10.7552 7.12393L9.13192 5.50064C10.0631 5.16953 11.0249 5.00007 12.0001 5.00008C15.5927 5.00011 19.0037 7.30015 21.3717 11.5099L21.6474 12.0002L21.3717 12.4905ZM16 12.0001C16 12.1191 15.9948 12.2369 15.9846 12.3533L11.6467 8.01546C11.7631 8.00527 11.8809 8.00008 12 8.00008C14.2091 8.00008 16 9.79094 16 12.0001Z" fill="#79838A"/>
</svg>
